<?xml version="1.0" encoding="utf-8"?>
<!-- Generator: Adobe Illustrator 16.0.0, SVG Export Plug-In . SVG Version: 6.00 Build 0)  -->
<!DOCTYPE svg PUBLIC "-//W3C//DTD SVG 1.1//EN" "http://www.w3.org/Graphics/SVG/1.1/DTD/svg11.dtd">
<svg version="1.1" id="Layer_1" xmlns="http://www.w3.org/2000/svg" xmlns:xlink="http://www.w3.org/1999/xlink" x="0px" y="0px"
	 width="841.89px" height="595.28px" viewBox="0 0 841.89 595.28" enable-background="new 0 0 841.89 595.28" xml:space="preserve">
<path fill="#57B681" d="M424.127,453.585c-59.546,0-98.95-35.898-98.95-93.257c0-76.619,63.049-177.319,96.323-218.914
	c33.276,41.594,98.511,142.295,98.511,218.914C520.011,417.687,480.167,453.585,424.127,453.585L424.127,453.585z M171.5,308.229
	v-24.519l115.586-84.502l13.574,18.828l-102.454,77.932l102.454,77.935l-13.574,18.828L171.5,308.229z M555.914,392.73
	l-13.574-18.828l102.451-77.935L542.34,218.036l13.574-18.828L671.5,283.709v24.519L555.914,392.73z"/>
</svg>
